<svg xmlns="http://www.w3.org/2000/svg" viewBox="0 0 50 50" width="100" height="100">
    <path style="text-indent:0;text-align:start;line-height:normal;text-transform:none;block-progression:tb;-inkscape-font-specification:Sans" d="M 24.84375 3 A 1.0001 1.0001 0 0 0 24.53125 3.125 C 18.536391 6.6212505 13.486006 9.6197531 7.5 13.125 A 1.0001 1.0001 0 0 0 7 14 L 7 20 A 1.0001 1.0001 0 0 0 7.5625 20.90625 C 7.5625 20.90625 18.566094 26.442759 24.5 29.875 A 1.0001 1.0001 0 0 0 25.5 29.875 C 28.571702 28.07247 31.813277 26.469976 35 24.6875 C 35.0027 27.168832 35.0012 29.884843 35 30.40625 L 25 35.875 L 14.46875 30.125 A 1.0001 1.0001 0 0 0 13.40625 30.1875 L 6.40625 35.1875 A 1.0001 1.0001 0 0 0 6.5 36.875 L 24.53125 46.875 A 1.0001 1.0001 0 0 0 25.5 46.875 L 43.5 36.875 A 1.0001 1.0001 0 0 0 44 36 C 44 36 43.992 21.009614 44 14 A 1.0001 1.0001 0 0 0 43.5 13.125 C 37.481234 9.5928368 31.483659 6.6006346 25.53125 3.125 A 1.0001 1.0001 0 0 0 24.84375 3 z M 25.03125 5.15625 C 30.719243 8.4513703 36.385429 11.325847 42 14.59375 C 41.9932 21.620824 41.999608 34.656764 42 35.40625 L 25 44.84375 L 8.875 35.90625 L 14.09375 32.1875 L 24.53125 37.875 A 1.0001 1.0001 0 0 0 25.46875 37.875 L 36.46875 31.875 A 1.0001 1.0001 0 0 0 37 31 C 37 31 37.01304 25.814805 37 23 A 1.0001 1.0001 0 0 0 35.5 22.125 C 32.112901 24.122881 28.507792 25.824123 25 27.84375 C 19.065499 24.456265 9.6701885 19.743489 9 19.40625 L 9 14.59375 C 14.593879 11.31591 19.441676 8.4190038 25.03125 5.15625 z M 24.8125 11 A 1.0001 1.0001 0 0 0 24.5 11.125 L 17.5 15.125 A 1.0001 1.0001 0 0 0 17.5 16.875 L 24.5 20.875 A 1.0001 1.0001 0 0 0 25.5 20.875 L 32.5 16.875 A 1.0001 1.0001 0 0 0 32.5 15.125 L 25.5 11.125 A 1.0001 1.0001 0 0 0 24.90625 11 A 1.0001 1.0001 0 0 0 24.8125 11 z M 25 13.15625 L 29.96875 16 L 25 18.84375 L 20.03125 16 L 25 13.15625 z" color="#000" overflow="visible" font-family="Sans"/>
</svg>