<svg version="1.1" xmlns="http://www.w3.org/2000/svg" x="0px" y="0px"
	 width="100px" height="100px" viewBox="0 0 100 100" enable-background="new 0 0 100 100" xml:space="preserve">
<path fill="#999999" stroke="#000000" stroke-width="5" stroke-miterlimit="10" d="M93.995,22.16
	c-1.344,0.388-2.737,0.619-4.128,0.68c0.025,1.598-0.688,3.132-2.46,3.926c-6.147,2.754-9.963-0.787-16.04-1.271
	c-7.402-0.589-14.794-0.866-22.17-1.803c-3.58-0.455-7.175-1.005-10.782-1.196c-3.192-0.169-5.42,1.228-8.464,1.477
	c-3.486,0.285-5.279-1.268-8.241-2.701c-0.23-0.111-0.924-0.453-1.774-0.87c-1.784,0.293-3.564,0.649-5.353,0.925
	c-1.124,0.482-2.379,0.609-3.506,0.377c-0.658,0.034-1.316,0.051-1.979,0.026c-1.239-0.047-2.228-0.467-2.99-1.096
	c-0.066-0.012-0.134-0.021-0.198-0.034c-0.136,0.144-0.268,0.293-0.411,0.431V84.5c0,6.627,5.373,12,12,12h65
	c6.627,0,12-5.373,12-12V22.456C94.322,22.367,94.154,22.268,93.995,22.16z M47.888,53.995c6.448,0,6.448,10,0,10
	C41.439,63.995,41.439,53.995,47.888,53.995z M26.251,37.516c6.449,0,6.449,10,0,10S19.802,37.516,26.251,37.516z M75.523,75.084
	c-9.427,5.694-20.66,10.738-31.961,9.562c-5.64-0.587-10.677-2.159-15.45-5.306c-2.476-1.633-4.959-3.162-6.822-5.504
	c-1.417-1.78-2.362-3.836-4.068-5.363c-4.814-4.309,2.282-11.356,7.071-7.07c3.39,3.034,4.84,6.811,8.866,9.303
	c3.747,2.318,7.471,3.961,11.954,4.03c9.232,0.143,17.58-3.585,25.363-8.286C76.011,63.106,81.034,71.755,75.523,75.084z
	 M73.112,49.197c-6.448,0-6.448-10,0-10S79.561,49.197,73.112,49.197z"/>
<polygon fill="#999999" stroke="#000000" stroke-miterlimit="10" points="83.172,20.045 79.378,18.445 75.693,20.284 76.293,16.617 
	73.185,14.133 77.35,13.469 79.113,10.095 81.088,13.35 85.286,13.749 82.344,16.425 "/>
<polygon fill="#999999" stroke="#000000" stroke-miterlimit="10" points="18.815,15.769 15.885,10.986 10.346,10.105 13.922,6.512 
	12.454,1.292 17.593,3.856 22.226,1.511 21.826,6.688 26.158,10.458 20.774,11.096 "/>
<polygon fill="#999999" stroke="#000000" stroke-miterlimit="10" points="63.206,16.108 58.061,15.881 54.604,19.7 53.637,15.069 
	48.888,13.485 53.438,10.853 53.959,6.054 57.737,9.057 62.809,7.675 60.597,12.163 "/>
<polygon fill="#999999" stroke="#000000" stroke-miterlimit="10" points="35.058,15.208 33.244,14.381 31.486,15.321 31.769,13.438 
	30.281,12.158 32.269,11.822 33.108,10.09 34.055,11.766 36.06,11.975 34.658,13.347 "/>
</svg>
